<?xml version="1.0" encoding="utf-8" ?>
<svg xmlns="http://www.w3.org/2000/svg" xmlns:xlink="http://www.w3.org/1999/xlink" width="1024" height="1024">
	<path fill="white" d="M0 0L1024 0L1024 1024L0 1024L0 0Z"/>
	<path fill="none" stroke="#0A84FF" stroke-width="2" stroke-miterlimit="10" d="M1024 0L0 1024" fill-rule="evenodd"/>
	<path fill="none" stroke="#0A84FF" stroke-width="2" stroke-miterlimit="10" d="M1024 1024L0 0" fill-rule="evenodd"/>
	<path fill="none" stroke="#0A84FF" stroke-width="2" stroke-miterlimit="10" transform="translate(0 511.5)" d="M1024 0.5L0 0.5" fill-rule="evenodd"/>
	<path fill="none" stroke="#0A84FF" stroke-width="2" stroke-miterlimit="10" transform="translate(0 639.5)" d="M1024 0.5L0 0.5" fill-rule="evenodd"/>
	<path fill="none" stroke="#0A84FF" stroke-width="2" stroke-miterlimit="10" transform="translate(0 767.5)" d="M1024 0.5L0 0.5" fill-rule="evenodd"/>
	<path fill="none" stroke="#0A84FF" stroke-width="2" stroke-miterlimit="10" transform="translate(0 895.5)" d="M1024 0.5L0 0.5" fill-rule="evenodd"/>
	<path fill="none" stroke="#0A84FF" stroke-width="2" stroke-miterlimit="10" transform="translate(0 383.5)" d="M1024 0.5L0 0.5" fill-rule="evenodd"/>
	<path fill="none" stroke="#0A84FF" stroke-width="2" stroke-miterlimit="10" transform="translate(0 255.5)" d="M1024 0.5L0 0.5" fill-rule="evenodd"/>
	<path fill="none" stroke="#0A84FF" stroke-width="2" stroke-miterlimit="10" transform="translate(0 127.5)" d="M1024 0.5L0 0.5" fill-rule="evenodd"/>
	<path fill="none" stroke="#0A84FF" stroke-width="2" stroke-miterlimit="10" transform="translate(511.5 0)" d="M0.5 0L0.5 1024" fill-rule="evenodd"/>
	<path fill="none" stroke="#0A84FF" stroke-width="2" stroke-miterlimit="10" transform="translate(383.5 0)" d="M0.5 1024L0.5 0" fill-rule="evenodd"/>
	<path fill="none" stroke="#0A84FF" stroke-width="2" stroke-miterlimit="10" transform="translate(255.5 0)" d="M0.5 1024L0.5 0" fill-rule="evenodd"/>
	<path fill="none" stroke="#0A84FF" stroke-width="2" stroke-miterlimit="10" transform="translate(127.5 0)" d="M0.5 1024L0.5 0" fill-rule="evenodd"/>
	<path fill="none" stroke="#0A84FF" stroke-width="2" stroke-miterlimit="10" transform="translate(639.5 0)" d="M0.5 1024L0.5 0" fill-rule="evenodd"/>
	<path fill="none" stroke="#0A84FF" stroke-width="2" stroke-miterlimit="10" transform="translate(767.5 0)" d="M0.5 1024L0.5 0" fill-rule="evenodd"/>
	<path fill="none" stroke="#0A84FF" stroke-width="2" stroke-miterlimit="10" transform="translate(895.5 0)" d="M0.5 1024L0.5 0" fill-rule="evenodd"/>
	<path fill="none" stroke="#0A84FF" stroke-width="2" stroke-miterlimit="10" transform="translate(102 102)" d="M410 0C636.43701 0 820 183.563 820 410C820 636.43701 636.43701 820 410 820C183.563 820 0 636.43701 0 410C0 183.563 183.563 0 410 0Z" fill-rule="evenodd"/>
	<path fill="none" stroke="#0A84FF" stroke-width="2" stroke-miterlimit="10" transform="translate(256 256)" d="M256 0C397.38501 0 512 114.615 512 256C512 397.38501 397.38501 512 256 512C114.615 512 0 397.38501 0 256C0 114.615 114.615 0 256 0Z" fill-rule="evenodd"/>
	<path fill="none" stroke="#0A84FF" stroke-width="2" stroke-miterlimit="10" transform="translate(410 410)" d="M102 0C158.33299 0 204 45.667 204 102C204 158.33299 158.33299 204 102 204C45.667 204 0 158.33299 0 102C0 45.667 45.667 0 102 0Z" fill-rule="evenodd"/>
</svg>
