<?xml version="1.0" encoding="utf-8" ?>
<svg xmlns="http://www.w3.org/2000/svg" xmlns:xlink="http://www.w3.org/1999/xlink" width="1024" height="1025">
	<path fill="white" d="M0 0L1024.0001 0L1024.0001 1024.0001L0 1024.0001L0 0Z"/>
	<path d="M0.00067266438 659.54559C0.0033633218 670.93921 0.016816609 682.33167 0.084083043 693.72607C0.15308304 705.72211 0.29108304 717.71606 0.61708307 729.70911C1.325083 755.8421 2.8630831 782.20306 7.5090833 808.04608C12.221083 834.2641 19.913082 858.66406 32.037083 882.48407C43.955082 905.89709 59.526085 927.32111 78.103081 945.89709C96.679085 964.47406 118.10408 980.04608 141.51608 991.96307C165.33609 1004.0881 189.73608 1011.7791 215.95409 1016.4921C241.79709 1021.1371 268.15808 1022.6751 294.29108 1023.3841C306.28409 1023.7091 318.27808 1023.8471 330.27408 1023.9161C344.51709 1024.0001 358.75708 1024.0001 373.00009 1024.0001L0.00018304498 1024.0001L0.00067266438 659.54559ZM1024.0001 651.00006L1024.0001 1024.0001L651.00006 1024.0001C665.2431 1024.0001 679.48309 1024.0001 693.72607 1023.9161C705.72211 1023.8471 717.71606 1023.7091 729.70911 1023.3841C755.84308 1022.6751 782.20306 1021.1371 808.04706 1016.4921C834.2641 1011.7791 858.66406 1004.0881 882.48407 991.96307C905.89709 980.04608 927.32111 964.47406 945.89807 945.89709C964.47406 927.32111 980.04608 905.89709 991.96307 882.48407C1004.0881 858.66406 1011.7791 834.2641 1016.4921 808.04608C1021.1371 782.20306 1022.6751 755.8421 1023.3841 729.70911C1023.7091 717.71606 1023.8471 705.72211 1023.9161 693.72607C1024.0001 679.48309 1024.0001 665.2431 1024.0001 651.00006ZM1024.0001 373.00009C1024.0001 358.75708 1024.0001 344.51709 1023.9161 330.27408C1023.8471 318.27808 1023.7091 306.28409 1023.3841 294.29108C1022.6751 268.15808 1021.1371 241.79709 1016.4921 215.95409C1011.7791 189.73608 1004.0881 165.33609 991.96307 141.51608C980.04608 118.10408 964.47406 96.679085 945.89807 78.103081C927.32111 59.526085 905.89709 43.954082 882.48407 32.037083C858.66406 19.913082 834.2641 12.221083 808.04706 7.5090833C782.20306 2.8630831 755.84308 1.325083 729.70911 0.61608303C717.71606 0.29108304 705.72211 0.15308304 693.72607 0.084083043C679.48309 0 665.2431 0 651.00006 0L1024.0001 8.3044986e-05L1024.0001 373.00009ZM0.00018304498 8.3044986e-05L364.45459 0.00067266438C353.06097 0.0033633218 341.66849 0.016816609 330.27408 0.084083043C318.27808 0.15308304 306.28409 0.29108304 294.29108 0.61608303C268.15808 1.325083 241.79709 2.8630831 215.95409 7.5090833C189.73608 12.221083 165.33609 19.913082 141.51608 32.037083C118.10408 43.954082 96.679085 59.526085 78.103081 78.103081C59.526085 96.679085 43.955082 118.10408 32.037083 141.51608C19.913082 165.33609 12.221083 189.73608 7.5090833 215.95409C2.8630831 241.79709 1.325083 268.15808 0.61708307 294.29108C0.29108304 306.28409 0.15308304 318.27808 0.084083043 330.27408C0 344.51709 0 358.75708 0 373.00009L0.00018304498 8.3044986e-05Z" fill-rule="evenodd"/>
</svg>
